 http://www.shotpix.com/images/62260706879497574208.jpg

 
http://www.imdb.com/title/tt1764234/


Jackie Cogan is an enforcer hired to restore order after three dumb guys rob a Mob protected card game, causing the local criminal economy to collapse.
 


Director: 
Andrew Dominik

 Writers: 
Andrew Dominik (screenplay), George V. Higgins (novel)
 
Stars:
 Brad Pitt, Ray Liotta and Richard Jenkins

Genres:
 Crime , Drama , Thriller

Country:
USA 

Language:
English 

Thanks : nLiBRA


Format                                   : AVI
Format/Info                              : Audio Video Interleave
File size                                : 668 MiB
Duration                                 : 1h 37mn
Overall bit rate                         : 961 Kbps
Writing application                      : Lavf54.32.100

Video
ID                                       : 0
Format                                   : MPEG-4 Visual
Format profile                           : Simple@L3
Format settings, BVOP                    : No
Format settings, QPel                    : No
Format settings, GMC                     : No warppoints
Format settings, Matrix                  : Default (H.263)
Codec ID                                 : XVID
Codec ID/Hint                            : XviD
Duration                                 : 1h 37mn
Bit rate                                 : 821 Kbps
Width                                    : 640 pixels
Height                                   : 352 pixels
Display aspect ratio                     : 16:9
Frame rate                               : 23.976 fps
Color space                              : YUV
Chroma subsampling                       : 4:2:0
Bit depth                                : 8 bits
Scan type                                : Progressive
Compression mode                         : Lossy
Bits/(Pixel*Frame)                       : 0.152
Stream size                              : 571 MiB (85%)
Writing library                          : XviD 64

Audio
ID                                       : 1
Format                                   : MPEG Audio
Format version                           : Version 1
Format profile                           : Layer 3
Codec ID                                 : 55
Codec ID/Hint                            : MP3
Duration                                 : 1h 37mn
Bit rate mode                            : Constant
Bit rate                                 : 128 Kbps
Channel(s)                               : 2 channels
Sampling rate                            : 44.1 KHz
Compression mode                         : Lossy
Stream size                              : 89.0 MiB (13%)
Alignment                                : Aligned on interleaves
Interleave, duration                     : 26 ms (0.63 video frame)
Interleave, preload duration             : 26 ms



 
http://www.shotpix.com/images/03167579227973456494.png 
http://www.shotpix.com/images/43951871069700807389.png 
http://www.shotpix.com/images/67099579214996673634.png 
http://www.shotpix.com/images/88982873672581861626.png 
http://www.shotpix.com/images/32230219017759732316.png